CD_DA


// Track 1
TRACK AUDIO
NO COPY
NO PRE_EMPHASIS
TWO_CHANNEL_AUDIO
ISRC "GBAAA0300350"
SILENCE 05:22:20
FILE "data.wav" 0 04:32:55
START 05:22:20


// Track 2
TRACK AUDIO
NO COPY
NO PRE_EMPHASIS
TWO_CHANNEL_AUDIO
ISRC "GBAAA0300351"
FILE "data.wav" 04:32:55 04:16:02
START 00:01:05


// Track 3
TRACK AUDIO
NO COPY
NO PRE_EMPHASIS
TWO_CHANNEL_AUDIO
ISRC "GBAAA0300352"
FILE "data.wav" 08:48:57 03:03:65
START 00:01:38


// Track 4
TRACK AUDIO
NO COPY
NO PRE_EMPHASIS
TWO_CHANNEL_AUDIO
ISRC "GBAAA0300353"
FILE "data.wav" 11:52:47 02:16:03
START 00:01:43


// Track 5
TRACK AUDIO
NO COPY
NO PRE_EMPHASIS
TWO_CHANNEL_AUDIO
ISRC "GBAAA0300355"
FILE "data.wav" 14:08:50 03:32:55
START 00:01:50


// Track 6
TRACK AUDIO
NO COPY
NO PRE_EMPHASIS
TWO_CHANNEL_AUDIO
ISRC "GBAAA0300356"
FILE "data.wav" 17:41:30 03:09:70
START 00:01:20


// Track 7
TRACK AUDIO
NO COPY
NO PRE_EMPHASIS
TWO_CHANNEL_AUDIO
ISRC "GBAAA0300357"
FILE "data.wav" 20:51:25 02:27:25
START 00:01:00


// Track 8
TRACK AUDIO
NO COPY
NO PRE_EMPHASIS
TWO_CHANNEL_AUDIO
ISRC "GBAAA0300358"
FILE "data.wav" 23:18:50 02:46:35
START 00:00:35


// Track 9
TRACK AUDIO
NO COPY
NO PRE_EMPHASIS
TWO_CHANNEL_AUDIO
ISRC "GBAAA0300359"
FILE "data.wav" 26:05:10 05:02:72
START 00:00:60


// Track 10
TRACK AUDIO
NO COPY
NO PRE_EMPHASIS
TWO_CHANNEL_AUDIO
ISRC "GBAAA0300360"
FILE "data.wav" 31:08:07 03:50:38
START 00:00:60


// Track 11
TRACK AUDIO
NO COPY
NO PRE_EMPHASIS
TWO_CHANNEL_AUDIO
ISRC "GBAAA0300361"
FILE "data.wav" 34:58:45 03:35:10
START 00:00:65

